<?xml version="1.0" encoding="utf-8"?>
<!-- Generator: Adobe Illustrator 19.2.1, SVG Export Plug-In . SVG Version: 6.00 Build 0)  -->
<svg version="1.1" id="Layer_1" xmlns="http://www.w3.org/2000/svg" xmlns:xlink="http://www.w3.org/1999/xlink" x="0px" y="0px"
	 viewBox="0 0 24 24" style="enable-background:new 0 0 24 24;" xml:space="preserve">
<style type="text/css">
	.st0{fill:#FFFFFF;stroke:#FFFFFF;stroke-miterlimit:10;}
</style>
<path class="st0" d="M22,8.5v1.4h-2.5c0-0.2,0-0.4,0-0.7c0-0.2,0-0.5,0-0.7L22,8.5L22,8.5z M11.4,2V0h1.4v2c-0.2,0-0.5,0-0.7,0
	C11.8,1.9,11.6,1.9,11.4,2z M16.9,3.5l1.6-1.7l1,0.9l-1.6,1.8C17.6,4.2,17.3,3.8,16.9,3.5z M6.1,4.5L4.5,2.7l1-0.9l1.6,1.7
	C6.7,3.8,6.4,4.2,6.1,4.5z M4.5,9.9H2V8.5h2.5c0,0.2,0,0.5,0,0.7C4.5,9.4,4.5,9.7,4.5,9.9z M14,19h-4c-0.3,0-0.5,0.2-0.5,0.5
	S9.7,20,10,20h4c0.3,0,0.5-0.2,0.5-0.5S14.3,19,14,19z M14,21h-4c-0.3,0-0.5,0.2-0.5,0.5S9.7,22,10,22h4c0.3,0,0.5-0.2,0.5-0.5
	S14.3,21,14,21z M14.3,23H9.8l1.2,0.8c0.2,0.1,0.4,0.2,0.6,0.2h0.9c0.2,0,0.5-0.1,0.6-0.2C13.1,23.8,14.2,23,14.3,23z M18,9.2
	c0,3.6-3.2,6-3.2,8.8h-2c0-1.9,0.9-3.4,1.7-4.9c0.8-1.3,1.5-2.6,1.5-3.9c0-2.6-2.1-3.8-4-3.8c-1.9,0-4,1.2-4,3.8
	c0,1.4,0.7,2.6,1.5,3.9c0.9,1.5,1.7,3,1.7,4.9h-2c0-2.8-3.2-5.2-3.2-8.8c0-3.7,3-5.8,6-5.8C15,3.4,18,5.5,18,9.2z"/>
</svg>
